<?xml version="1.0" standalone="no"?>
<!DOCTYPE svg PUBLIC "-//W3C//DTD SVG 20010904//EN"
 "http://www.w3.org/TR/2001/REC-SVG-20010904/DTD/svg10.dtd">
<svg version="1.0" xmlns="http://www.w3.org/2000/svg"
 width="4000.000000pt" height="4000.000000pt" viewBox="0 0 4000.000000 4000.000000"
 preserveAspectRatio="xMidYMid meet">

<g transform="translate(0.000000,4000.000000) scale(0.100000,-0.100000)"
fill="#000000" stroke="none">
<path d="M0 20000 l0 -20000 20000 0 20000 0 0 20000 0 20000 -20000 0 -20000
0 0 -20000z m15150 4697 c205 -24 580 -94 800 -148 514 -128 889 -299 1405
-642 165 -110 278 -195 400 -302 123 -107 405 -387 421 -416 13 -26 11 -28
-72 -104 -47 -43 -138 -130 -202 -194 -64 -64 -318 -316 -564 -560 l-448 -443
-68 63 c-224 207 -288 264 -384 341 -201 161 -343 251 -568 360 -453 220 -878
309 -1409 295 -244 -6 -357 -22 -625 -88 -312 -77 -553 -177 -821 -337 -274
-165 -535 -404 -744 -682 -179 -238 -361 -585 -450 -860 -12 -36 -39 -137 -61
-225 -77 -318 -93 -451 -94 -785 -1 -283 1 -299 80 -655 61 -281 120 -450 243
-695 139 -278 273 -467 496 -699 256 -266 428 -391 765 -553 263 -127 544
-219 867 -285 123 -25 704 -25 861 0 231 37 543 117 706 181 265 105 460 209
766 411 387 256 629 452 1169 945 70 63 160 144 201 180 41 36 126 114 190
174 292 275 810 700 1095 898 87 60 434 270 555 336 182 99 606 282 860 372
80 28 258 80 395 115 206 52 292 69 490 94 585 74 796 80 2585 73 746 -3 1377
-2 1404 2 l49 8 -6 1847 -7 1848 68 6 c37 4 491 7 1009 7 743 0 944 -3 950
-12 4 -7 8 -966 8 -2130 0 -1680 3 -2120 13 -2129 6 -7 12 -25 12 -40 0 -15 7
-29 16 -33 9 -3 260 -6 559 -6 422 0 545 3 552 13 5 6 15 66 22 132 7 66 30
210 51 320 21 110 48 259 60 330 88 515 289 1014 623 1550 286 458 772 956
1233 1263 453 302 976 549 1421 672 258 72 688 153 988 187 229 26 975 26
1212 0 492 -53 956 -161 1313 -305 588 -236 1000 -480 1420 -843 486 -418 761
-759 1068 -1324 204 -376 351 -827 478 -1463 56 -285 66 -445 54 -874 -11
-369 -20 -454 -70 -701 -128 -628 -198 -858 -361 -1185 -226 -455 -379 -701
-613 -987 -197 -240 -584 -605 -826 -779 -267 -191 -376 -256 -661 -395 -585
-285 -1153 -451 -1804 -527 -189 -23 -953 -26 -1160 -6 -490 48 -1087 190
-1505 359 -370 150 -833 411 -1145 646 -232 176 -619 560 -837 832 -158 197
-333 485 -498 820 -172 350 -287 707 -340 1057 -12 73 -34 205 -50 293 -33
186 -59 361 -63 425 l-2 45 -572 0 c-314 0 -575 -4 -580 -8 -4 -5 -8 -978 -8
-2162 0 -1754 -2 -2156 -13 -2167 -10 -10 -201 -14 -965 -16 -524 -2 -974 0
-1002 5 l-50 8 0 1715 c0 1436 -2 1736 -15 1847 -13 117 -16 132 -35 138 -43
13 -1053 23 -1930 19 -1192 -6 -1452 -17 -1770 -74 -513 -93 -908 -246 -1404
-543 -313 -188 -610 -424 -1046 -832 -104 -97 -230 -213 -280 -258 -49 -44
-166 -153 -260 -242 -323 -307 -381 -361 -515 -479 -74 -65 -162 -139 -195
-164 -33 -26 -128 -101 -212 -168 -294 -237 -546 -399 -873 -564 -534 -268
-1088 -440 -1661 -514 -286 -37 -939 -46 -1259 -16 -576 53 -1296 257 -1799
510 -519 260 -865 512 -1293 942 -296 297 -419 457 -634 823 -181 310 -301
562 -387 815 -116 341 -170 593 -248 1159 l-33 233 -471 -5 c-504 -5 -575 -11
-785 -63 -259 -64 -434 -137 -607 -253 -125 -84 -228 -180 -352 -329 -272
-329 -471 -537 -619 -649 -73 -56 -217 -126 -307 -149 -93 -24 -291 -24 -395
-1 -224 51 -438 217 -703 549 -240 301 -405 469 -571 581 -83 57 -303 166
-394 196 -146 49 -436 111 -450 96 -3 -3 -9 -36 -14 -73 -10 -99 -10 -2526 1
-2555 8 -20 18 -25 66 -31 31 -3 931 -5 1998 -4 2936 4 3035 4 3049 -10 10
-10 13 -189 13 -830 l0 -817 -40 -7 c-59 -10 -7077 -9 -7094 1 -12 8 -13 173
-5 1112 5 607 9 1345 8 1639 0 294 -2 1850 -5 3457 l-4 2923 2990 0 c1645 0
3213 1 3485 2 l495 3 0 -830 0 -830 -30 -6 c-16 -4 -1129 -7 -2472 -8 -1758
-1 -2444 -4 -2449 -12 -3 -6 -9 -575 -12 -1264 -4 -1045 -3 -1262 9 -1302 7
-26 13 -51 12 -55 -6 -18 79 -18 144 0 37 11 127 34 198 52 141 35 307 104
443 185 185 110 381 296 596 565 168 211 350 401 440 460 84 56 208 115 286
135 163 43 383 28 537 -36 163 -68 332 -224 627 -579 340 -409 476 -523 778
-654 122 -53 407 -129 550 -146 114 -14 1028 -25 1046 -12 7 5 18 59 27 135 9
70 24 173 35 230 11 56 31 174 45 262 55 341 139 662 247 933 121 309 348 719
543 982 297 400 740 827 1130 1087 327 219 709 418 1035 541 398 150 961 264
1505 306 127 10 886 -3 1005 -17z m5953 -1624 c1 -830 2 -1579 2 -1665 0 -86
-3 -160 -7 -163 -4 -4 -49 -18 -100 -30 -173 -42 -552 -154 -708 -209 -321
-112 -636 -262 -1007 -477 -122 -71 -223 -129 -225 -129 -3 0 -4 4161 0 4173
1 4 461 7 1022 7 l1020 0 3 -1507z m-8 -6136 l0 -1492 -50 -6 c-27 -4 -483 -7
-1012 -8 -708 -1 -964 2 -969 10 -4 6 -9 230 -12 497 -4 420 -3 509 13 668 16
156 16 188 5 209 -10 20 -11 28 -2 37 7 7 12 21 12 33 0 26 383 415 565 573
360 313 563 477 715 579 213 142 668 390 720 392 13 1 15 -171 15 -1492z"/>
<path d="M33230 22926 c-418 -49 -781 -169 -1147 -382 -445 -258 -810 -652
-1054 -1137 -102 -201 -151 -336 -234 -642 -56 -205 -69 -273 -81 -431 l-6
-91 73 -6 c41 -3 172 -1 291 4 186 7 236 13 345 38 71 16 166 37 213 46 157
32 345 114 509 222 108 72 334 297 451 448 222 289 422 494 559 573 144 83
288 122 447 122 178 0 323 -45 481 -150 124 -83 230 -185 374 -361 215 -263
355 -424 436 -498 155 -144 466 -311 706 -381 195 -56 271 -64 577 -65 243 0
268 2 294 19 l29 18 -6 92 c-15 230 -122 603 -273 947 -144 329 -316 572 -602
851 -256 249 -390 346 -662 476 -257 123 -558 221 -851 278 -116 22 -703 29
-869 10z"/>
<path d="M30713 19774 c-3 -9 -3 -62 0 -118 24 -389 221 -959 450 -1301 215
-321 425 -545 710 -756 135 -101 463 -274 677 -357 168 -66 394 -123 631 -159
152 -23 658 -23 824 0 185 26 469 94 614 148 165 61 482 216 610 299 282 183
618 535 826 865 63 100 169 312 210 420 122 320 225 732 225 902 l0 61 -117 7
c-466 30 -976 -95 -1320 -321 -116 -76 -306 -267 -458 -459 -189 -240 -252
-311 -354 -402 -113 -101 -183 -150 -288 -202 -123 -61 -195 -76 -363 -76
-206 1 -293 27 -460 138 -92 61 -362 330 -480 477 -292 365 -447 505 -685 623
-118 58 -195 88 -337 131 -238 72 -420 96 -726 96 -158 0 -183 -2 -189 -16z"/>
</g>
</svg>
