<svg xmlns="http://www.w3.org/2000/svg" width="160" height="159"><path d="M0 0h160v159H0z"/><path fill="#525151" d="M114.66 20.273c14.235 10.504 23.531 23.538 26.883 41.102.742 5.888.7 11.695.457 17.625l2.438-.062C147 79 147 79 148 80c.04 2 .043 4 0 6l-2.875 1.25C141.8 89.112 141.343 89.636 140 93a72 72 0 0 0-.875 4.188c-2.355 10.865-6.882 16.413-15.875 22.75-6.027 1.97-12.054 2.284-18.04-.004C98.163 116.026 93.16 110.424 90 103a114 114 0 0 1-1.125-6.25l-.508-3.266L88 91c-1.58-.25-3.164-.474-4.75-.687l-2.672-.387c-3.225.093-4.36.756-6.578 3.074-.692 2.153-.692 2.153-.875 4.563-1.324 7.817-4.94 14.086-11.25 18.937A71 71 0 0 1 58 119l-1.86 1.125c-5.566 2.275-12.426 1.849-18.003-.152-6.71-3.676-11.304-8.795-13.871-16.047-.696-2.684-1.185-5.354-1.575-8.098-.37-2.442-.37-2.442-1.691-5.828-2.314-1.605-4.254-2.186-7-3v-7h6l-.14-3.191c-.547-17.805 3.655-32.378 15.515-46.121C41.697 24 48.488 18.568 57 15l2.36-1.129c17.72-7.35 39.518-3.839 55.3 6.402"/><path fill="#7F7A74" d="M114.66 20.273C127.555 29.788 138.387 42.695 141 59c.215 3.506.191 6.989.125 10.5l-.027 2.781q-.036 3.36-.098 6.719c-8.35.14-8.35.14-12.187-1-9.09-2.178-19.28-2.11-27.813 2a48 48 0 0 0-5.527 4.89L94 86l-3-1c.083-2.808.558-4.524 2.484-6.598 4.64-4.034 8.168-6.755 14.516-6.402-2.098-3.974-4.17-6.595-8-9-3.21-.335-3.21-.335-6 0l-.687-1.937L92 59c-1.66-.369-3.328-.696-5-1a750 750 0 0 1-6-4c-3.225-1.243-3.225-1.243-6-2l1-5 4-1 2.125 3.313c3.452 4.8 6.94 6.344 12.75 7.374L98 57l1 3a306 306 0 0 0 5 2c2.41 1.577 4.688 3.278 7 5-.11-4.563-.303-7.988-2.937-11.812C102.349 51.107 95.653 49.1 89 47a88 88 0 0 1-1-5c1-1 1-1 3.563-1.062L94 41l.5 2.375c1.204 2.734 1.204 2.734 3.414 3.402 2.011.487 4.049.862 6.086 1.223a893 893 0 0 0-1.375-5.812l-.773-3.27c-.74-3.073-.74-3.073-2.852-5.918l-3-1v-4c-4.125-.118-8.25-.188-12.375-.25l-3.504-.102C67.508 27.506 58.412 31.628 49 40c-7.714 8.742-11.508 18.427-12 30h6l.125-3.75c1.033-8.987 5.796-17.337 12.402-23.434 6.95-5.104 17.611-11.564 26.41-10.441L84 33c.625 1.875.625 1.875 1 4l-2 2-3.937-.625c-7.176-.92-12.965 1.457-18.81 5.547C51.618 51.16 47.94 59.07 46 70l7 1 .125-3.937C53.973 59.37 59.125 52.82 65 48c2.813-.812 2.813-.812 5-1l1 5c-2.16 1.12-4.07 2.018-6.437 2.625C60.609 56.747 58.808 59.962 57 64c-.635 2.733-.849 5.181-1 8l7 2 .063-3.062c.625-4.328 2.808-6.652 5.949-9.56 3.03-2.1 5.339-2.304 8.988-2.378v2l-1.61.664C71.379 63.914 68.506 65.885 66 71c-.75 2.544-.75 2.544 0 5l2.563 2.5L71 81c-.187 2.813-.187 2.813-1 5-3.55-1.708-6.794-3.742-10.098-5.879-3.254-1.918-5.92-2.249-9.613-2.254l-2.773-.004-2.891.012-2.867-.012-2.781.004-2.53.004c-2.566.135-4.93.622-7.447 1.129a71 71 0 0 1-4.312.063L21 79c-.7-19.15 1.382-33.252 14.313-48.187C41.639 24.05 48.434 18.59 57 15l2.36-1.129c17.72-7.35 39.518-3.839 55.3 6.402"/><path fill="#040503" d="M96 28v4l1.86.238C100 33 100 33 101.265 34.855 103.184 39.4 104.516 42.962 104 48c-5.625.25-5.625.25-9-2-.687-2.125-.687-2.125-1-4h-5l1 5c.568.182 1.137.364 1.723.55 15.37 5.005 15.37 5.005 19.277 10.45.4 3.048.3 5.946 0 9a93 93 0 0 1-8.187-4.5l-2.106-1.281C99 60 99 60 98 58l-3.062-.312c-5.967-1.042-10.406-3.534-13.938-8.5L80 47l-4 1v4l3.125.75c3.81 1.072 6.64 2.97 9.875 5.25l3 1 2 3 2.625-.25c4.596.34 6.485 2.432 9.836 5.426C108 69 108 69 108 72l-1.723.445C99.094 74.532 94.177 77.735 90 84l-1.723-.492c-2.316-.517-4.345-.641-6.715-.633l-2.246-.008c-2.512.144-4.862.588-7.316 1.133-6.906-6.63-6.906-6.63-7.25-11.625 1.758-4.746 4.034-7.941 8.375-10.75C75 61 75 61 78 61v-2c-5.834 1.167-9.51 3.061-13 8-.99 2.362-1.494 4.469-2 7l-7-2c-.705-6.462.588-9.761 4.2-15.117 2.123-2.22 3.898-2.942 6.8-3.883l3-1v-4c-4.898.42-6.863 2.314-10 6-4.057 5.366-5.971 10.368-7 17l-7-1c.51-10.522 4.227-18.119 11.957-25.312 5.27-4.353 11.448-7.886 18.484-7.583 2.201.238 4.376.529 6.559.895l1-4c-7.98-2.418-15.747 2.436-22.687 6.094-9.208 5.298-14.145 13.54-17.13 23.68-.464 2.06-.836 4.142-1.183 6.226h-6c-1.047-10.521 2.42-18.935 8.688-27.312C49.868 37.8 54.454 34.226 60 31l2.156-1.316C71.806 24.808 85.635 25.917 96 28"/><path fill="#050604" d="M110.938 25.25c11.375 7.93 20.014 18.572 23.64 32.148.787 4.855.65 9.703.422 14.602-2 .043-4 .04-6 0-1.731-1.731-1.38-4.324-1.625-6.687C126.109 56.567 122.567 47.159 116 41c-.687-2.187-.687-2.187-1-4h-4v4l1.766.16c3.282 1.234 4.187 3.324 5.984 6.278l1.86 2.996C122 53 122 53 122 55l-9 3c-5.405-5.17-6.67-8.829-7.57-16.195-.515-3.357-1.777-5.859-3.43-8.805-.368-1.66-.707-3.326-1-5-11.404-4.394-26.25-5.405-37.75-.875C58.392 29.557 54.086 32.429 50 36l-1.797 1.445c-9.132 8.041-12.795 19.169-13.914 30.887C34 71 34 71 33 72c-2 .04-4 .043-6 0-.682-13.638 3.354-25.971 12.375-36.25 19.503-20.6 46.82-25.243 71.563-10.5"/><path fill="#020101" d="M58 82.563c4.265 2.254 7.206 4.9 9 9.437 1.014 5.633.536 10.587-2.656 15.398-3.894 4.641-7.83 8.293-14.051 8.84-6.29.15-10.459.243-15.293-4.238-4.595-4.698-7.034-8.85-7.375-15.437.113-4.548 1.369-7.07 4.375-10.563 7.125-6.43 17.129-6.932 26-3.437"/><path fill="#010101" d="M125.563 82.688c4.033 2.459 6.767 4.817 8.035 9.539 1.026 6.435.005 11.33-3.598 16.773-3.518 3.846-7.586 6.71-12.805 7.336-6.243.08-10.4.108-15.195-4.336-4.492-4.593-6.753-8.45-7.375-14.875.135-4.463 1.532-7.7 4.375-11.125 7.495-5.812 17.727-7.447 26.563-3.312"/><path fill="#75A923" d="M103 34c2.793 4.19 4.01 7.438 4.313 12.438.43 4.943 2.227 7.102 5.687 10.562l2.25-1c2.75-1 2.75-1 6.75-1l-1.277-2.082-1.66-2.73-1.653-2.708C116 45 116 45 115 42l-5-1 1-5c2.375.188 2.375.188 5 1a113 113 0 0 1 2 5 100 100 0 0 0 2.875 4.188C126.481 54.487 128.283 61.063 128 71c-3.207.205-6.413.328-9.625.438l-2.738.177c-6.681.17-6.681.17-9.532-2.174-1.59-1.914-1.59-1.914-2.9-3.84-1.165-1.864-1.165-1.864-3.83-2.476L97 63c-2.25-.375-2.25-.375-4-1l-1-3-2.125-.25C86.34 57.828 84.02 56.034 81 54c-3.225-1.243-3.225-1.243-6-2l1-5 4-1 2.125 3.313c3.452 4.8 6.94 6.344 12.75 7.374L98 57l1 3a306 306 0 0 0 5 2c2.41 1.577 4.688 3.278 7 5-.11-4.563-.303-7.988-2.937-11.812C102.349 51.107 95.653 49.1 89 47a88 88 0 0 1-1-5c1-1 1-1 3.563-1.062L94 41l.5 2.375c1.204 2.734 1.204 2.734 3.414 3.402 2.011.487 4.049.862 6.086 1.223l-.473-2.3-.59-3.013-.597-2.988C102 37 102 37 103 34"/><path fill="#6B7B6D" d="m79.813 23.625 2.655.03c13.1.314 13.1.314 18.532 3.345 1.901 3.192 2.198 4.748 1.625 8.375L102 37l-1.312-1.937c-1.6-2.33-1.6-2.33-4.688-3.063v-4c-4.125-.118-8.25-.188-12.375-.25l-3.504-.102c-8.55-.096-14.773 1.457-22.255 5.507-2.35 1.064-3.487.695-5.866-.155a519 519 0 0 1 4.5-2.812l2.531-1.583c6.998-3.784 12.823-5.112 20.782-4.98"/><path fill="#847D73" d="M84 33c.625 1.875.625 1.875 1 4l-2 2-3.937-.625c-7.195-.922-13.056 1.433-18.844 5.652C55.354 48.212 51.723 52.183 49 58l-2-1c.774-6.678 5.263-10.574 10-15 7.227-5.22 17.898-11.758 27-9"/><path fill="#AB9804" d="M103 34c2.801 4.202 4.026 7.555 4.438 12.563.326 3.632.898 5.773 3.562 8.437l-3 1-1.2-1.371c-2.1-1.9-3.97-2.689-6.612-3.691l-2.668-1.02A207 207 0 0 0 89 47a88 88 0 0 1-1-5c1-1 1-1 3.563-1.062L94 41l.5 2.375c1.204 2.734 1.204 2.734 3.414 3.402 2.011.487 4.049.862 6.086 1.223l-.473-2.3-.59-3.013-.597-2.988C102 37 102 37 103 34"/><path fill="#020502" d="M124 58c1.327 3.981 1.07 7.85 1 12h-12c-.425-4.332-.47-6.35 2.125-9.937 3.306-2.373 4.899-2.525 8.875-2.063"/><path fill="#86807B" d="m54 33 2 1-1.504 1.145C44.85 42.96 38.45 53.85 36.68 66.242l-.18 1.883L36 71c-2.062 1.438-2.062 1.438-4 2l1-2q.325-3.123.625-6.25C35.361 52.397 41.075 41.752 51 34z"/><path fill="#B17641" d="M77 46c1.813.063 1.813.063 4 1l1.875 2.875C85.331 53.487 86.945 54.489 91 56c3.738.714 3.738.714 7 1l1 3c2 1.209 2 1.209 4 2-6.848 1.4-6.848 1.4-10 0l-1-3-2.125-.25C86.34 57.828 84.02 56.034 81 54c-3.225-1.243-3.225-1.243-6-2 .875-4.875.875-4.875 2-6"/><path fill="#4F7065" d="M84 33c.625 1.875.625 1.875 1 4l-2 2c-1.988-.059-1.988-.059-4.312-.437-3.5-.486-6.244-.563-9.688.437v-2l-2-1c11.208-4.755 11.208-4.755 17-3"/><path fill="#7DB42D" d="m109 55 3 1v3h3l-3 12c-4 0-4 0-5.922-1.75L104.25 67l-1.86-2.25L101 63l3-1c1.824.996 1.824.996 3.688 2.438l1.886 1.433L111 67a853 853 0 0 0-.437-4.312l-.247-2.426c-.269-2.423-.269-2.423-1.316-5.262"/><path fill="#7D9B0B" d="M89 41h5l.5 2.375c1.204 2.734 1.204 2.734 3.414 3.402 2.011.487 4.049.862 6.086 1.223l-3 3a671 671 0 0 1-5.375-1.375l-3.023-.773C90 48 90 48 88 46c.375-2.625.375-2.625 1-5"/><path fill="#61852B" d="M125 55c3.602 5.403 3.082 9.684 3 16h-16v-6h1v5h12l-.562-5.812c-.563-5.813-.563-5.813.562-9.188"/><path fill="#938804" d="m88 55 10 2 1 3c2 1.209 2 1.209 4 2-6.848 1.4-6.848 1.4-10 0l-1-3-5-1z"/><path fill="#B5754B" d="M96 27h5c2.429 6.286 2.429 6.286 1 10l-1.312-1.937c-1.6-2.33-1.6-2.33-4.688-3.063z"/><path fill="#8E8781" d="m61 54 2 1-1.277 1.793-1.66 2.395-1.653 2.355C56.954 64.08 56.404 66.122 56 69h-2c.119-4.966.234-8.08 3.5-12l2.5-2z"/><path fill="#495A4F" d="M96 26v2l-22-1v-1q3.812-.293 7.625-.562l2.16-.17c4.252-.293 8.01-.163 12.215.732"/><path fill="#81AB16" d="M101 62c4 .852 6.75 2.488 10 5v3c-3.6-.556-5-1.749-7.25-4.562l-1.578-1.942z"/><path fill="#7A756A" d="M64 28v2a205 205 0 0 1-3.75 2.063l-2.11 1.16c-2.501.908-3.673.66-6.14-.223a288 288 0 0 1 3.75-2.5l2.11-1.406C60 28 60 28 64 28"/><path fill="#78796C" d="M69 37v2c-4.58 2.995-4.58 2.995-7 4-2.437-.75-2.437-.75-4-2 6.5-4 6.5-4 11-4"/><path fill="#6A6C5F" d="M74 25v2c-1.622.389-3.248.76-4.875 1.125l-2.742.633L64 29l-2-2a211 211 0 0 1 3.75-1.562l2.11-.88c2.44-.636 3.78-.36 6.14.442"/><path fill="#AC7D1E" d="m81 48 1.75 2.25A77 77 0 0 0 89 57c-3.155-.35-4.823-.865-7.375-2.812C80 52 80 52 80.25 49.75z"/><path fill="#826806" d="M103 34c4.26 6.391 4.26 6.391 3.625 10.313L106 46l-.875-1.875c-1.062-2.258-1.062-2.258-3.125-4.125.375-3.125.375-3.125 1-6"/><path fill="#8C857F" d="M50 50h2c-.6 3.356-1.846 5.378-4 8-.687-1.75-.687-1.75-1-4 1.313-2.25 1.313-2.25 3-4"/><path fill="#5E962F" d="M123 57v1c-7.625 2.125-7.625 2.125-11 1 1-2 1-2 3.25-3.25 3.35-.914 4.72-.308 7.75 1.25"/><path fill="#77920E" d="M102 51c2.813-.25 2.813-.25 6 0 1.875 2 1.875 2 3 4l-3 1-1.312-1.375C104.892 52.8 104.892 52.8 102 51"/></svg>